<?xml version="1.0" encoding="UTF-8" standalone="no"?>
<svg
   xmlns:dc="http://purl.org/dc/elements/1.1/"
   xmlns:cc="http://creativecommons.org/ns#"
   xmlns:rdf="http://www.w3.org/1999/02/22-rdf-syntax-ns#"
   xmlns:svg="http://www.w3.org/2000/svg"
   xmlns="http://www.w3.org/2000/svg"
   xmlns:sodipodi="http://sodipodi.sourceforge.net/DTD/sodipodi-0.dtd"
   xmlns:inkscape="http://www.inkscape.org/namespaces/inkscape"
   width="32"
   height="32"
   viewBox="0 0 8.4666665 8.4666669"
   version="1.1"
   id="svg8"
   inkscape:version="1.0.1 (3bc2e813f5, 2020-09-07)"
   sodipodi:docname="tennis.svg">
  <defs
     id="defs2" />
  <sodipodi:namedview
     id="base"
     pagecolor="#ffffff"
     bordercolor="#666666"
     borderopacity="1.0"
     inkscape:pageopacity="0.0"
     inkscape:pageshadow="2"
     inkscape:zoom="8.0000002"
     inkscape:cx="9.7679348"
     inkscape:cy="27.578627"
     inkscape:document-units="mm"
     inkscape:current-layer="layer1"
     inkscape:document-rotation="0"
     showgrid="false"
     showborder="true"
     inkscape:window-width="1920"
     inkscape:window-height="1001"
     inkscape:window-x="-9"
     inkscape:window-y="-9"
     inkscape:window-maximized="1"
     units="px" />
  <metadata
     id="metadata5">
    <rdf:RDF>
      <cc:Work
         rdf:about="">
        <dc:format>image/svg+xml</dc:format>
        <dc:type
           rdf:resource="http://purl.org/dc/dcmitype/StillImage" />
        <dc:title></dc:title>
      </cc:Work>
    </rdf:RDF>
  </metadata>
  <g
     inkscape:label="Layer 1"
     inkscape:groupmode="layer"
     id="layer1">
    <g
       id="g894"
       style="fill:#ffff00;stroke:#377db8;stroke-width:5;stroke-miterlimit:4;stroke-dasharray:none;stroke-opacity:1"
       inkscape:export-xdpi="200"
       inkscape:export-ydpi="200"
       transform="matrix(0.09574755,0,0,0.09574755,-0.7823856,-6.5056785)">
      <path
         id="path839"
         style="fill:#ffff00;fill-rule:evenodd;stroke:#377db8;stroke-width:5;stroke-miterlimit:4;stroke-dasharray:none;stroke-opacity:1"
         d="m 92.384828,112.15965 a 40,40 0 0 1 -40,40 40,40 0 0 1 -40,-40 40,40 0 0 1 40,-39.999997 40,40 0 0 1 40,39.999997 z" />
      <path
         id="path888"
         style="fill:#ffff00;fill-rule:evenodd;stroke:#377db8;stroke-width:18.8976;stroke-miterlimit:4;stroke-dasharray:none;stroke-opacity:1"
         d="m 77.213266,332.98051 a 151.1811,134.44348 0 0 1 46.453684,96.96044 v 0 a 151.1811,134.44348 0 0 1 -40.844342,91.9092"
         transform="scale(0.26458333)" />
      <path
         id="path881"
         style="fill:#ffff00;fill-rule:evenodd;stroke:#377db8;stroke-width:18.8976;stroke-miterlimit:4;stroke-dasharray:none;stroke-opacity:1"
         d="M 303.04209,532.6278 A 151.1811,134.44348 0 0 1 245.30477,426.94095 151.1811,134.44348 0 0 1 306.65645,318.80419"
         transform="scale(0.26458333)" />
    </g>
  </g>
</svg>
